<svg width="100%" viewBox="0 0 680 455" xmlns="http://www.w3.org/2000/svg">
  <defs>
    <marker id="ah3" viewBox="0 0 10 10" refX="9" refY="5" markerWidth="5" markerHeight="5" orient="auto">
      <path d="M1 1 L9 5 L1 9" fill="none" stroke="#9ca3af" stroke-width="1.5" stroke-linecap="round"/>
    </marker>
    <marker id="ah3g" viewBox="0 0 10 10" refX="9" refY="5" markerWidth="5" markerHeight="5" orient="auto">
      <path d="M1 1 L9 5 L1 9" fill="none" stroke="#16a34a" stroke-width="1.5" stroke-linecap="round"/>
    </marker>
    <marker id="ah3a" viewBox="0 0 10 10" refX="9" refY="5" markerWidth="5" markerHeight="5" orient="auto">
      <path d="M1 1 L9 5 L1 9" fill="none" stroke="#d97706" stroke-width="1.5" stroke-linecap="round"/>
    </marker>
    <marker id="ah3r" viewBox="0 0 10 10" refX="9" refY="5" markerWidth="5" markerHeight="5" orient="auto">
      <path d="M1 1 L9 5 L1 9" fill="none" stroke="#dc2626" stroke-width="1.5" stroke-linecap="round"/>
    </marker>
  </defs>
  <text x="260" y="22" text-anchor="middle" font-family="system-ui,sans-serif" font-size="11" fill="#6b7280">docker create</text>
  <line x1="260" y1="26" x2="260" y2="50" stroke="#6b7280" stroke-width="1.5" marker-end="url(#ah3)"/>
  <rect x="190" y="50" width="140" height="48" rx="8" fill="#1f2937" stroke="#6b7280" stroke-width="1.5"/>
  <text x="260" y="70" text-anchor="middle" font-family="system-ui,sans-serif" font-size="13" font-weight="600" fill="#d1d5db" dominant-baseline="central">Created</text>
  <text x="260" y="88" text-anchor="middle" font-family="system-ui,sans-serif" font-size="10" fill="#6b7280" dominant-baseline="central">파일시스템 준비, 미실행</text>
  <line x1="260" y1="98" x2="260" y2="142" stroke="#9ca3af" stroke-width="1.5" marker-end="url(#ah3)"/>
  <text x="272" y="124" font-family="system-ui,sans-serif" font-size="10" fill="#9ca3af">docker start</text>
  <rect x="190" y="142" width="140" height="44" rx="8" fill="#052e16" stroke="#16a34a" stroke-width="2"/>
  <text x="260" y="164" text-anchor="middle" font-family="system-ui,sans-serif" font-size="13" font-weight="600" fill="#4ade80" dominant-baseline="central">Running</text>
  <path d="M 330 150 L 430 150 L 430 248 L 440 248" fill="none" stroke="#d97706" stroke-width="1.5" marker-end="url(#ah3a)" stroke-dasharray="5 3"/>
  <text x="346" y="142" font-family="system-ui,sans-serif" font-size="10" fill="#d97706">docker pause</text>
  <rect x="440" y="228" width="160" height="48" rx="8" fill="#451a03" stroke="#d97706" stroke-width="1.5"/>
  <text x="520" y="248" text-anchor="middle" font-family="system-ui,sans-serif" font-size="13" font-weight="600" fill="#fbbf24" dominant-baseline="central">Paused</text>
  <text x="520" y="266" text-anchor="middle" font-family="system-ui,sans-serif" font-size="10" fill="#d97706" dominant-baseline="central">SIGSTOP, 일시중지</text>
  <path d="M 520 228 L 520 164 L 330 164" fill="none" stroke="#16a34a" stroke-width="1.5" marker-end="url(#ah3g)" stroke-dasharray="5 3"/>
  <text x="390" y="210" font-family="system-ui,sans-serif" font-size="10" fill="#16a34a">docker unpause</text>
  <line x1="260" y1="186" x2="260" y2="300" stroke="#dc2626" stroke-width="1.5" marker-end="url(#ah3r)"/>
  <text x="272" y="238" font-family="system-ui,sans-serif" font-size="10" fill="#dc2626">exit / docker stop</text>
  <text x="272" y="253" font-family="system-ui,sans-serif" font-size="10" fill="#dc2626">SIGTERM → SIGKILL</text>
  <rect x="190" y="300" width="140" height="44" rx="8" fill="#3b0a0a" stroke="#dc2626" stroke-width="1.5"/>
  <text x="260" y="322" text-anchor="middle" font-family="system-ui,sans-serif" font-size="13" font-weight="600" fill="#f87171" dominant-baseline="central">Stopped</text>
  <path d="M 190 322 L 100 322 L 100 164 L 190 164" fill="none" stroke="#9ca3af" stroke-width="1.5" marker-end="url(#ah3)" stroke-dasharray="5 3"/>
  <text x="92" y="248" text-anchor="middle" font-family="system-ui,sans-serif" font-size="10" fill="#9ca3af" transform="rotate(-90, 92, 248)">docker start</text>
  <line x1="260" y1="344" x2="260" y2="394" stroke="#6b7280" stroke-width="1.5" marker-end="url(#ah3)"/>
  <text x="272" y="374" font-family="system-ui,sans-serif" font-size="10" fill="#6b7280">docker rm</text>
  <rect x="190" y="394" width="140" height="44" rx="8" fill="#111827" stroke="#374151" stroke-width="1.5"/>
  <text x="260" y="416" text-anchor="middle" font-family="system-ui,sans-serif" font-size="13" font-weight="600" fill="#9ca3af" dominant-baseline="central">Removed</text>
</svg>
