<svg width="100%" viewBox="0 0 680 445" xmlns="http://www.w3.org/2000/svg">
  <defs>
    <marker id="ah1" viewBox="0 0 10 10" refX="9" refY="5" markerWidth="5" markerHeight="5" orient="auto">
      <path d="M1 1 L9 5 L1 9" fill="none" stroke="#9ca3af" stroke-width="1.5" stroke-linecap="round"/>
    </marker>
  </defs>
  <text x="168" y="18" text-anchor="middle" font-family="system-ui,sans-serif" font-size="13" font-weight="600" fill="#9ca3af">VM 구조</text>
  <text x="512" y="18" text-anchor="middle" font-family="system-ui,sans-serif" font-size="13" font-weight="600" fill="#9ca3af">컨테이너 구조</text>
  <line x1="340" y1="24" x2="340" y2="435" stroke="#374151" stroke-width="1" stroke-dasharray="5 4"/>
  <rect x="10" y="24" width="316" height="405" rx="12" fill="none" stroke="#4b5563" stroke-width="1" stroke-dasharray="6 4"/>
  <rect x="20" y="36" width="88" height="264" rx="8" fill="#2a1008" stroke="#ea580c" stroke-width="1.5"/>
  <text x="64" y="62" text-anchor="middle" font-family="system-ui,sans-serif" font-size="12" font-weight="600" fill="#fb923c" dominant-baseline="central">App A</text>
  <line x1="26" y1="74" x2="102" y2="74" stroke="#ea580c" stroke-width="0.8"/>
  <rect x="26" y="80" width="76" height="72" rx="6" fill="#3b1309" stroke="#ea580c" stroke-width="1"/>
  <text x="64" y="110" text-anchor="middle" font-family="system-ui,sans-serif" font-size="11" font-weight="600" fill="#fb923c" dominant-baseline="central">Guest OS</text>
  <text x="64" y="134" text-anchor="middle" font-family="system-ui,sans-serif" font-size="10" fill="#c07040" dominant-baseline="central">(1~2GB)</text>
  <rect x="116" y="36" width="88" height="264" rx="8" fill="#2a1008" stroke="#ea580c" stroke-width="1.5"/>
  <text x="160" y="62" text-anchor="middle" font-family="system-ui,sans-serif" font-size="12" font-weight="600" fill="#fb923c" dominant-baseline="central">App B</text>
  <line x1="122" y1="74" x2="198" y2="74" stroke="#ea580c" stroke-width="0.8"/>
  <rect x="122" y="80" width="76" height="72" rx="6" fill="#3b1309" stroke="#ea580c" stroke-width="1"/>
  <text x="160" y="110" text-anchor="middle" font-family="system-ui,sans-serif" font-size="11" font-weight="600" fill="#fb923c" dominant-baseline="central">Guest OS</text>
  <text x="160" y="134" text-anchor="middle" font-family="system-ui,sans-serif" font-size="10" fill="#c07040" dominant-baseline="central">(1~2GB)</text>
  <rect x="212" y="36" width="88" height="264" rx="8" fill="#2a1008" stroke="#ea580c" stroke-width="1.5"/>
  <text x="256" y="62" text-anchor="middle" font-family="system-ui,sans-serif" font-size="12" font-weight="600" fill="#fb923c" dominant-baseline="central">App C</text>
  <line x1="218" y1="74" x2="294" y2="74" stroke="#ea580c" stroke-width="0.8"/>
  <rect x="218" y="80" width="76" height="72" rx="6" fill="#3b1309" stroke="#ea580c" stroke-width="1"/>
  <text x="256" y="110" text-anchor="middle" font-family="system-ui,sans-serif" font-size="11" font-weight="600" fill="#fb923c" dominant-baseline="central">Guest OS</text>
  <text x="256" y="134" text-anchor="middle" font-family="system-ui,sans-serif" font-size="10" fill="#c07040" dominant-baseline="central">(1~2GB)</text>
  <text x="22" y="316" font-family="system-ui,sans-serif" font-size="10" fill="#9a6348">← 각자 OS 보유 (1~2GB)</text>
  <rect x="20" y="324" width="280" height="42" rx="8" fill="#1e1547" stroke="#7c3aed" stroke-width="1.5"/>
  <text x="160" y="345" text-anchor="middle" font-family="system-ui,sans-serif" font-size="12" font-weight="600" fill="#a78bfa" dominant-baseline="central">Hypervisor (VMware / KVM)</text>
  <rect x="20" y="374" width="280" height="42" rx="8" fill="#1f2937" stroke="#6b7280" stroke-width="1.5"/>
  <text x="160" y="395" text-anchor="middle" font-family="system-ui,sans-serif" font-size="12" font-weight="600" fill="#d1d5db" dominant-baseline="central">Host OS</text>
  <rect x="354" y="24" width="316" height="405" rx="12" fill="none" stroke="#4b5563" stroke-width="1" stroke-dasharray="6 4"/>
  <rect x="364" y="36" width="88" height="180" rx="8" fill="#052e16" stroke="#059669" stroke-width="1.5"/>
  <text x="408" y="62" text-anchor="middle" font-family="system-ui,sans-serif" font-size="12" font-weight="600" fill="#34d399" dominant-baseline="central">App A</text>
  <line x1="370" y1="74" x2="446" y2="74" stroke="#059669" stroke-width="0.8"/>
  <rect x="370" y="80" width="76" height="60" rx="6" fill="#064e22" stroke="#059669" stroke-width="1"/>
  <text x="408" y="110" text-anchor="middle" font-family="system-ui,sans-serif" font-size="12" font-weight="600" fill="#34d399" dominant-baseline="central">Libs</text>
  <rect x="460" y="36" width="88" height="180" rx="8" fill="#052e16" stroke="#059669" stroke-width="1.5"/>
  <text x="504" y="62" text-anchor="middle" font-family="system-ui,sans-serif" font-size="12" font-weight="600" fill="#34d399" dominant-baseline="central">App B</text>
  <line x1="466" y1="74" x2="542" y2="74" stroke="#059669" stroke-width="0.8"/>
  <rect x="466" y="80" width="76" height="60" rx="6" fill="#064e22" stroke="#059669" stroke-width="1"/>
  <text x="504" y="110" text-anchor="middle" font-family="system-ui,sans-serif" font-size="12" font-weight="600" fill="#34d399" dominant-baseline="central">Libs</text>
  <rect x="556" y="36" width="88" height="180" rx="8" fill="#052e16" stroke="#059669" stroke-width="1.5"/>
  <text x="600" y="62" text-anchor="middle" font-family="system-ui,sans-serif" font-size="12" font-weight="600" fill="#34d399" dominant-baseline="central">App C</text>
  <line x1="562" y1="74" x2="638" y2="74" stroke="#059669" stroke-width="0.8"/>
  <rect x="562" y="80" width="76" height="60" rx="6" fill="#064e22" stroke="#059669" stroke-width="1"/>
  <text x="600" y="110" text-anchor="middle" font-family="system-ui,sans-serif" font-size="12" font-weight="600" fill="#34d399" dominant-baseline="central">Libs</text>
  <text x="366" y="232" font-family="system-ui,sans-serif" font-size="10" fill="#059669">← 라이브러리만 (경량)</text>
  <rect x="364" y="324" width="280" height="42" rx="8" fill="#0c2340" stroke="#2563eb" stroke-width="1.5"/>
  <text x="504" y="345" text-anchor="middle" font-family="system-ui,sans-serif" font-size="12" font-weight="600" fill="#60a5fa" dominant-baseline="central">Docker Engine (Daemon)</text>
  <rect x="364" y="374" width="280" height="42" rx="8" fill="#052e16" stroke="#059669" stroke-width="1.5"/>
  <text x="504" y="395" text-anchor="middle" font-family="system-ui,sans-serif" font-size="12" font-weight="600" fill="#34d399" dominant-baseline="central">Host OS (커널 공유)</text>
</svg>
